<svg height="512" viewBox="0 0 60 60" width="512" xmlns="http://www.w3.org/2000/svg"><g id="Page-1" fill="none" fill-rule="evenodd"><g id="009---Schedule-Backlog" fill="rgb(0,0,0)" fill-rule="nonzero"><path id="Shape" d="m57 15h-2v-1c0-1.6568542-1.3431458-3-3-3h-2v-1c0-1.65685425-1.3431458-3-3-3h-3v-1c0-1.65685425-1.3431458-3-3-3h-1c0-1.65685425-1.3431458-3-3-3s-3 1.34314575-3 3h-24c-.00000002-1.65685423-1.34314577-2.99999996-3-2.99999996s-2.99999998 1.34314573-3 2.99999996h-1c-1.65685425 0-3 1.34314575-3 3v39c0 1.6568542 1.34314575 3 3 3h3v1c0 1.6568542 1.34314575 3 3 3h2v1c0 1.6568542 1.3431458 3 3 3h2v1c0 .7956495.3160705 1.5587112.8786797 2.1213203.5626091.5626092 1.3256708.8786797 2.1213203.8786797h38c1.6568542 0 3-1.3431458 3-3v-39c0-1.6568542-1.3431458-3-3-3zm0 2c.5522847 0 1 .4477153 1 1v6h-3v-7zm-5-4c.5522847 0 1 .4477153 1 1v6h-3v-7zm-5-4c.5522847 0 1 .44771525 1 1v6h-4v-7zm-11-6c0-.55228475.4477153-1 1-1s1 .44771525 1 1v4c0 .55228475-.4477153 1-1 1s-1-.44771525-1-1zm-30 0c0-.55228475.44771525-1 1-1s1 .44771525 1 1v4c0 .55228475-.44771525 1-1 1s-1-.44771525-1-1zm-3 2h1v2c.00000002 1.65685423 1.34314577 2.99999996 3 2.99999996s2.99999998-1.34314573 3-2.99999996v-2h24v2c0 1.65685425 1.3431458 3 3 3s3-1.34314575 3-3v-2h1c.5522847 0 1 .44771525 1 1v6h-40v-6c0-.55228475.44771525-1 1-1zm-1 40v-31h40v31c0 .5522847-.4477153 1-1 1h-38c-.55228475 0-1-.4477153-1-1zm6 4v-1h33c1.6568542 0 3-1.3431458 3-3v-27h4v31c0 .5522847-.4477153 1-1 1h-38c-.55228475 0-1-.4477153-1-1zm5 4v-1h34c1.6568542 0 3-1.3431458 3-3v-27h3v31c0 .5522847-.4477153 1-1 1h-38c-.5522847 0-1-.4477153-1-1zm44 5h-38c-.5522847 0-1-.4477153-1-1v-1h34c1.6568542 0 3-1.3431458 3-3v-27h3v31c0 .5522847-.4477153 1-1 1z"/><path id="Shape" d="m12 16h-6c-1.1045695 0-2 .8954305-2 2v4c0 1.1045695.8954305 2 2 2h6c1.1045695 0 2-.8954305 2-2v-4c0-1.1045695-.8954305-2-2-2zm-6 6v-4h6v4z"/><path id="Shape" d="m12 26h-6c-1.1045695 0-2 .8954305-2 2v4c0 1.1045695.8954305 2 2 2h6c1.1045695 0 2-.8954305 2-2v-4c0-1.1045695-.8954305-2-2-2zm-6 6v-4h6v4z"/><path id="Shape" d="m12 36h-6c-1.1045695 0-2 .8954305-2 2v4c0 1.1045695.8954305 2 2 2h6c1.1045695 0 2-.8954305 2-2v-4c0-1.1045695-.8954305-2-2-2zm-6 6v-4h6v4z"/><path id="Shape" d="m25 16h-6c-1.1045695 0-2 .8954305-2 2v4c0 1.1045695.8954305 2 2 2h6c1.1045695 0 2-.8954305 2-2v-4c0-1.1045695-.8954305-2-2-2zm-6 6v-4h6v4z"/><path id="Shape" d="m25 26h-6c-1.1045695 0-2 .8954305-2 2v4c0 1.1045695.8954305 2 2 2h6c1.1045695 0 2-.8954305 2-2v-4c0-1.1045695-.8954305-2-2-2zm-6 6v-4h6v4z"/><path id="Shape" d="m25 36h-6c-1.1045695 0-2 .8954305-2 2v4c0 1.1045695.8954305 2 2 2h6c1.1045695 0 2-.8954305 2-2v-4c0-1.1045695-.8954305-2-2-2zm-6 6v-4h6v4z"/><path id="Shape" d="m38 16h-6c-1.1045695 0-2 .8954305-2 2v4c0 1.1045695.8954305 2 2 2h6c1.1045695 0 2-.8954305 2-2v-4c0-1.1045695-.8954305-2-2-2zm-6 6v-4h6v4z"/><path id="Shape" d="m38 26h-6c-1.1045695 0-2 .8954305-2 2v4c0 1.1045695.8954305 2 2 2h6c1.1045695 0 2-.8954305 2-2v-4c0-1.1045695-.8954305-2-2-2zm-6 6v-4h6v4z"/><path id="Shape" d="m38 36h-6c-1.1045695 0-2 .8954305-2 2v4c0 1.1045695.8954305 2 2 2h6c1.1045695 0 2-.8954305 2-2v-4c0-1.1045695-.8954305-2-2-2zm-6 6v-4h6v4z"/></g></g></svg>