<svg id="Capa_1" enable-background="new 0 0 512.133 512.133" height="512" viewBox="0 0 512.133 512.133" width="512" xmlns="http://www.w3.org/2000/svg"><g><path d="m481.493 241.988-65.559-47.983-2.94-23.351c-13.431-106.681-111.149-182.543-217.832-169.113-106.926 13.463-182.578 110.891-169.111 217.832 8.364 66.431 50.187 123.614 110.29 151.997l-18.422 92.368c-1.611 8.08 3.596 15.948 11.664 17.621l146.875 30.461c4.03.836 8.206-.024 11.566-2.342 3.374-2.328 5.647-5.935 6.293-9.982l12.984-81.364h122.204c4.359 0 8.502-1.896 11.352-5.195 2.849-3.299 4.123-7.674 3.488-11.987l-14.979-101.879 51.264-32.287c4.204-2.647 6.824-7.205 6.997-12.169.171-4.964-2.125-9.693-6.134-12.627zm-76.385 36.907c-5.026 3.166-7.71 8.998-6.846 14.875l13.875 94.364h-117.633c-7.372 0-13.651 5.357-14.813 12.636l-12.524 78.486-116.916-24.248 17.879-89.641c1.417-7.108-2.45-14.213-9.189-16.881-56.086-22.204-95.601-73.113-103.125-132.861-11.393-90.475 52.604-172.926 143.094-184.319 90.272-11.365 172.955 52.828 184.32 143.096l3.748 29.764c.515 4.093 2.694 7.793 6.023 10.23l52.965 38.766z"/><path d="m219.503 58.133c-41.355 0-75 33.645-75 75 0 8.284 6.716 15 15 15s15-6.716 15-15c0-24.813 20.187-45 45-45s45 20.187 45 45c0 18.234-10.876 34.548-27.707 41.562-19.617 8.175-32.293 27.188-32.293 48.438 0 8.284 6.716 15 15 15s15-6.716 15-15c0-9.102 5.43-17.245 13.832-20.747 28.046-11.687 46.168-38.871 46.168-69.253.001-41.355-33.645-75-75-75z"/><circle cx="219.504" cy="282.994" r="15"/></g></svg>