<svg height="496pt" viewBox="-4 0 496 496" width="496pt" xmlns="http://www.w3.org/2000/svg"><path d="m487.089844 368-30-80h-29.546875v-121.449219l-21.703125-57.871093c-1.855469-4.945313-5.648438-8.800782-10.296875-10.902344v-97.777344h-267.3125l-68.6875 68.6875v219.3125h-29.542969l-30 80h43.542969v128h400v-128zm-23.089844-16h-207.511719l-24-48h213.503907zm-100.457031-176h16v112h-16zm32 112v-112h16v112zm12.457031-128h-40.910156l17.125-45.6875c1.050781-2.769531 5.617187-2.761719 6.648437-.007812zm-284.457031-132.6875v36.6875h-36.6875zm-48 52.6875h64v-64h240v81.769531c-4.648438 2.101563-8.4375 5.957031-10.304688 10.910157l-21.695312 57.871093v121.449219h-272zm-34.453125 224h149.503906l-24 48h-143.503906zm18.453125 64h116.945312l27.054688-54.113281v166.113281h-144zm368 112h-208v-166.113281l27.058593 54.113281h180.941407zm0 0"/><path d="m315.542969 448h64v16h-64zm0 0"/><path d="m395.542969 448h16v16h-16zm0 0"/><path d="m315.542969 416h96v16h-96zm0 0"/><path d="m155.542969 32h208v16h-208zm0 0"/><path d="m155.542969 64h208v16h-208zm0 0"/><path d="m91.542969 96h256v16h-256zm0 0"/><path d="m91.542969 272h144v-144h-144zm16-128h112v112h-112zm0 0"/><path d="m251.542969 128h80v16h-80zm0 0"/><path d="m251.542969 160h80v16h-80zm0 0"/><path d="m251.542969 192h80v16h-80zm0 0"/><path d="m251.542969 224h80v16h-80zm0 0"/><path d="m315.542969 256h16v16h-16zm0 0"/><path d="m251.542969 256h48v16h-48zm0 0"/></svg>