<svg id="Capa_1" enable-background="new 0 0 512 512" height="512" viewBox="0 0 512 512" width="512" xmlns="http://www.w3.org/2000/svg"><g><path d="m137.216 131.75v128.5c0 2.68 1.43 5.155 3.75 6.495l111.284 64.25c1.16.67 2.455 1.005 3.75 1.005s2.59-.335 3.75-1.005l111.284-64.25c2.32-1.34 3.75-3.815 3.75-6.495v-128.5c0-2.68-1.43-5.155-3.75-6.495l-111.284-64.25c-2.32-1.34-5.18-1.34-7.5 0l-111.284 64.25c-2.32 1.34-3.75 3.815-3.75 6.495zm15 12.99 96.284 55.59v111.18l-96.284-55.59zm103.784 42.6-96.284-55.59 40.642-23.465 96.284 55.59zm7.5 124.17v-111.18l96.284-55.59v111.18zm-7.5-235.35 96.284 55.59-40.642 23.465-96.284-55.59z"/><path d="m341.034 201.793c-2.32-1.34-5.18-1.34-7.5 0l-51.284 29.609c-2.32 1.34-3.75 3.815-3.75 6.495v34.641c0 2.68 1.43 5.155 3.75 6.495 1.16.67 2.455 1.005 3.75 1.005s2.59-.335 3.75-1.005l51.284-29.609c2.32-1.34 3.75-3.815 3.75-6.495v-34.641c0-2.679-1.43-5.155-3.75-6.495zm-11.25 36.807-36.284 20.948v-17.321l36.284-20.949z"/><path d="m256 0c-108.075 0-196 87.925-196 196 0 41.964 13.083 81.992 37.834 115.756l.046-.034c.462.73 139.984 191.096 139.984 191.096 4.254 5.75 11.033 9.182 18.136 9.182 7.122 0 13.899-3.44 18.094-9.229.521-.631 140.089-191.016 140.089-191.016 24.74-33.773 37.817-73.8 37.817-115.755 0-108.075-87.925-196-196-196zm146.084 302.888c-1.382 1.885-137.928 188.173-139.996 190.967-.016.021-.032.042-.048.064-1.438 1.958-3.639 3.081-6.04 3.081-2.403 0-4.618-1.131-6.057-3.076-1.383-1.887-138.122-188.437-139.968-190.978-.014-.02-.028-.04-.042-.059-22.854-31.173-34.933-68.135-34.933-106.887 0-99.804 81.196-181 181-181s181 81.196 181 181c0 38.745-12.074 75.707-34.916 106.888z"/><path d="m256 30c-38.542 0-76.098 13.509-105.749 38.04-3.191 2.641-3.638 7.368-.998 10.56 2.641 3.192 7.368 3.64 10.56.998 26.967-22.311 61.127-34.598 96.187-34.598 83.262 0 151 67.738 151 151s-67.738 151-151 151-151-67.738-151-151c0-35.06 12.287-69.22 34.597-96.188 2.64-3.191 2.193-7.919-.998-10.56-3.191-2.64-7.919-2.194-10.56.998-24.53 29.652-38.039 67.208-38.039 105.75 0 91.533 74.467 166 166 166s166-74.467 166-166-74.467-166-166-166z"/></g></svg>